<?xml version="1.0" encoding="UTF-8"?>
<svg id="Layer_1" data-name="Layer 1" xmlns="http://www.w3.org/2000/svg" viewBox="0 0 844.13 443.54">
  <defs>
    <style>
      .cls-1, .cls-2 {
        fill: #fff;
      }

      .cls-2 {
        fill-rule: evenodd;
      }
    </style>
  </defs>
  <g>
    <path class="cls-2" d="m373.41,155.66v13.79h-5.89v35.13c0,19.89-12.56,27.79-30.46,27.79s-30.46-7.9-30.46-27.79v-35.13h-6v-13.79h29.68v13.79h-6v35.13c0,7.9,2.89,14,12.89,14s12.68-6.11,12.68-14v-35.13h-6.01v-13.79h29.57Z"/>
    <path class="cls-2" d="m419.1,155.66l19.12,61.81h6v13.79h-31.46v-13.79h6.22l-2.45-9.11h-20.35l-2.89,9.11h6.45v13.79h-30.57v-13.79h7l15.23-48.02h-7.22v-13.79h34.91Zm-12.23,15.68l-7.11,24.23h13.78l-6.56-24.23h-.11Z"/>
    <polygon class="cls-2" points="447 153.44 469.68 153.44 469.68 217.47 475.68 217.47 475.68 231.26 447 231.26 447 217.47 453.01 217.47 453.01 167.23 447 167.23 447 153.44"/>
    <path class="cls-2" d="m484.69,229.14c-7.12-4.78-5.9-14.56,4.55-19.9v-.22c-5.55-2.79-9-8.79-9-15.57,0-13.01,9.67-18.9,24.01-18.9,2.89,0,6,.45,8.22,1.11h21.12v9.9h-8v.22c1.44,1.78,2.11,4.22,2.11,7.67,0,13.11-9.89,18.78-23.45,18.78-1.78,0-4.34-.34-6.56-.99-2.33,3.45-2.22,6.22,1.33,6.44l17.79.79c11.22.44,17.89,6,17.89,15.45,0,14.34-10.79,20.67-33.8,20.67-17.12,0-24.46-4.66-24.46-14.45,0-4.79,2.45-8,8.23-10.78v-.22h0Zm18.78,14.12c6.67,0,13.67-1.44,13.67-6.12,0-2.33-1.89-4.11-5.67-4.45l-18.34-1.11c-1.33,1.68-2.45,2.68-2.45,5.68,0,5.55,6.66,6,12.79,6h0Zm8.44-49.8c0-5.67-3.33-7.57-7.67-7.57-4.56,0-7.79,1.9-7.79,7.57s3.34,7.44,7.79,7.44,7.67-1.88,7.67-7.44Z"/>
    <path class="cls-2" d="m324.6,267.89v2.3h-2v11.2c0,5.36-2.85,7.66-7.81,7.66s-7.83-2.31-7.83-7.66v-11.2h-2v-2.3h6.91v2.3h-2v11.2c0,2.3.47,5.36,4.97,5.36s4.85-3.06,4.85-5.36v-11.2h-2v-2.3h6.9Z"/>
    <polygon class="cls-2" points="345.76 267.89 345.76 270.18 343.77 270.18 343.77 288.73 340.76 288.73 330.55 273.19 330.49 273.19 330.49 286.43 332.57 286.43 332.57 288.73 325.82 288.73 325.82 286.43 327.82 286.43 327.82 270.18 325.82 270.18 325.82 267.89 330.64 267.89 341 283.83 341.07 283.83 341.07 270.18 339.01 270.18 339.01 267.89 345.76 267.89"/>
    <polygon class="cls-2" points="348.98 286.43 348.98 270.18 346.99 270.18 346.99 267.89 353.88 267.89 353.88 270.18 351.89 270.18 351.89 286.43 353.88 286.43 353.88 288.73 346.99 288.73 346.99 286.43 348.98 286.43"/>
    <polygon class="cls-2" points="375.04 267.89 375.04 270.18 373.42 270.18 367.01 288.89 363.26 288.89 356.64 270.18 355.11 270.18 355.11 267.89 362.62 267.89 362.62 270.18 359.86 270.18 365.29 285.88 365.32 285.88 370.44 270.18 367.68 270.18 367.68 267.89 375.04 267.89"/>
    <polygon class="cls-2" points="391.75 267.89 391.75 272.33 389.45 272.33 389.45 270.18 381.17 270.18 381.17 276.77 390.22 276.77 390.22 279.07 381.17 279.07 381.17 286.43 389.45 286.43 389.45 284.29 391.75 284.29 391.75 288.73 376.27 288.73 376.27 286.43 378.27 286.43 378.27 270.18 376.27 270.18 376.27 267.89 391.75 267.89"/>
    <path class="cls-2" d="m404.33,267.89c4.14,0,6.44,2.55,6.44,6.22,0,2.95-1.65,5.24-4.48,5.74l4.66,6.59h1.5v2.3h-7.21v-2.3h2.03l-4.18-6.13h-4.44v6.13h2v2.3h-6.9v-2.3h2v-16.26h-2v-2.29h10.58Zm-5.68,10.12h5.22c2.3,0,3.89-1.38,3.89-3.9s-1.44-3.93-3.74-3.93h-5.37v7.83Z"/>
    <path class="cls-2" d="m416.75,283.52v2.39c2.27.52,3.8.67,5.21.67,3.22,0,4.45-1.68,4.45-3.38,0-2.51-2.98-3.21-5.22-3.83-3.4-.89-6.59-2.76-6.59-6.29,0-3.96,3.22-5.52,7.2-5.52,2.3,0,4.45.31,7.05,1.07v4.45h-2.3v-2.49c-2.14-.46-3.4-.58-4.75-.58-3.06,0-4.14,1.38-4.14,3.01,0,2.36,3.04,3.34,5.37,3.89,3.37.78,6.44,2.39,6.44,5.99,0,4.14-3.22,6.13-7.51,6.13-2.3,0-4.91-.31-7.52-1.08v-4.44h2.3Z"/>
    <polygon class="cls-2" points="433.46 286.43 433.46 270.18 431.47 270.18 431.47 267.89 438.36 267.89 438.36 270.18 436.37 270.18 436.37 286.43 438.36 286.43 438.36 288.73 431.47 288.73 431.47 286.43 433.46 286.43"/>
    <path class="cls-2" d="m449.01,267.89c6.84,0,8.83,4.44,8.83,10.27s-1.99,10.57-8.83,10.57h-9.42v-2.3h2v-16.25h-2v-2.3h9.42Zm0,18.55c4.69,0,5.76-3.83,5.76-8.28s-1.07-7.97-5.76-7.97h-4.51v16.25h4.51Z"/>
    <path class="cls-2" d="m470.44,267.89l6.26,18.55h1.69v2.31h-7.21v-2.31h2.36l-1.35-4.04h-7.81l-1.44,4.04h2.27v2.31h-7.05v-2.31h1.93l5.74-16.25h-2.24v-2.3h6.87Zm-2.05,2.6l-3.4,9.75h6.68l-3.25-9.75h-.03Z"/>
    <path class="cls-2" d="m489.02,267.89c6.85,0,8.84,4.44,8.84,10.27s-1.99,10.57-8.84,10.57h-9.41v-2.3h1.99v-16.25h-1.99v-2.3h9.41Zm0,18.55c4.69,0,5.78-3.83,5.78-8.28s-1.08-7.97-5.78-7.97h-4.5v16.25h4.5Z"/>
    <polygon class="cls-2" points="514.87 267.89 514.87 272.33 512.57 272.33 512.57 270.18 504.29 270.18 504.29 276.77 513.34 276.77 513.34 279.07 504.29 279.07 504.29 286.43 512.57 286.43 512.57 284.29 514.87 284.29 514.87 288.73 499.39 288.73 499.39 286.43 501.38 286.43 501.38 270.18 499.39 270.18 499.39 267.89 514.87 267.89"/>
    <path class="cls-2" d="m531.8,267.89c6.84,0,8.84,4.44,8.84,10.27s-2,10.57-8.84,10.57h-9.41v-2.3h1.99v-16.25h-1.99v-2.3h9.41Zm0,18.55c4.69,0,5.77-3.83,5.77-8.28s-1.07-7.97-5.77-7.97h-4.51v16.25h4.51Z"/>
    <path class="cls-2" d="m543.38,278.16c0-5.83,1.74-10.58,8.9-10.58s8.89,4.75,8.89,10.58-1.77,10.88-8.89,10.88-8.9-4.97-8.9-10.88h0Zm3.08,0c0,4.44.82,8.58,5.82,8.58s5.82-4.14,5.82-8.58-.85-8.28-5.82-8.28-5.82,3.84-5.82,8.28Z"/>
    <path class="cls-2" d="m580.98,267.89l6.25,18.55h1.68v2.31h-7.2v-2.31h2.36l-1.35-4.04h-7.82l-1.44,4.04h2.27v2.31h-7.05v-2.31h1.93l5.74-16.25h-2.24v-2.3h6.87Zm-2.06,2.6l-3.4,9.75h6.69l-3.26-9.75h-.03Z"/>
    <polygon class="cls-2" points="605.48 284.29 605.48 288.73 590.15 288.73 590.15 286.43 592.15 286.43 592.15 270.17 590.15 270.17 590.15 267.89 597.05 267.89 597.05 270.17 595.06 270.17 595.06 286.43 603.19 286.43 603.19 284.29 605.48 284.29"/>
    <path class="cls-2" d="m615.97,286.59c1.53,0,2.95-.4,4.08-1.01v-4.98h-3.99v-2.3h6.91v9.08c-2.12.89-4.26,1.66-7.21,1.66-6.84,0-8.89-4.97-8.89-10.88s1.75-10.58,8.89-10.58c2.36,0,4.6.31,7.21,1.07v4.29h-2.3v-2.48c-2.09-.46-3.31-.59-4.7-.59-4.82,0-6.04,3.84-6.04,8.28s1.53,8.43,6.04,8.43Z"/>
    <path class="cls-2" d="m637.4,267.89l6.26,18.55h1.69v2.31h-7.21v-2.31h2.36l-1.34-4.04h-7.82l-1.44,4.04h2.27v2.31h-7.05v-2.31h1.93l5.74-16.25h-2.24v-2.3h6.87Zm-2.05,2.6l-3.4,9.75h6.68l-3.25-9.75h-.03Z"/>
    <path class="cls-2" d="m657.15,267.89c4.14,0,6.44,2.55,6.44,6.22,0,2.95-1.65,5.24-4.47,5.74l4.66,6.59h1.51v2.3h-7.21v-2.3h2.03l-4.18-6.13h-4.44v6.13h1.99v2.3h-6.89v-2.3h1.99v-16.26h-1.99v-2.29h10.57Zm-5.67,10.12h5.21c2.3,0,3.89-1.38,3.89-3.9s-1.43-3.93-3.74-3.93h-5.36v7.83Z"/>
    <polygon class="cls-2" points="684.29 267.89 684.29 270.18 682.67 270.18 676.26 288.89 672.51 288.89 665.89 270.18 664.36 270.18 664.36 267.89 671.87 267.89 671.87 270.18 669.11 270.18 674.55 285.88 674.57 285.88 679.69 270.18 676.93 270.18 676.93 267.89 684.29 267.89"/>
    <polygon class="cls-2" points="701.01 267.89 701.01 272.33 698.7 272.33 698.7 270.18 690.42 270.18 690.42 276.77 699.47 276.77 699.47 279.07 690.42 279.07 690.42 286.43 698.7 286.43 698.7 284.29 701.01 284.29 701.01 288.73 685.52 288.73 685.52 286.43 687.52 286.43 687.52 270.18 685.52 270.18 685.52 267.89 701.01 267.89"/>
  </g>
  <g>
    <path class="cls-2" d="m211.32,250.56c-9.5,0-18.5-2.19-26.53-6.07,4.47,1.17,9.14,1.85,13.98,1.85,30.69,0,55.65-24.97,55.65-55.66s-24.97-55.66-55.65-55.66c-8.34,0-16.22,1.9-23.33,5.2,10.08-7.35,22.47-11.71,35.87-11.71,33.65,0,61.02,27.38,61.02,61.02s-27.38,61.02-61.02,61.02h0Zm-25.85-17.91c-5.39,0-10.52-1.05-15.26-2.89,8.02,5.88,17.88,9.4,28.57,9.4,26.73,0,48.48-21.75,48.48-48.48s-21.75-48.48-48.48-48.48c-9.69,0-18.7,2.89-26.28,7.79,4.09-1.31,8.45-2.05,12.98-2.05,23.35,0,42.35,19,42.35,42.35s-19,42.36-42.35,42.36h0Zm-23.5-16.25c6.24,5.61,14.47,9.07,23.5,9.07,19.4,0,35.18-15.78,35.18-35.18s-15.78-35.18-35.18-35.18c-10.67,0-20.23,4.79-26.69,12.33,4.3-2.71,9.37-4.29,14.81-4.29,15.39,0,27.9,12.52,27.9,27.9s-12.52,27.91-27.9,27.91c-4.15,0-8.08-.94-11.62-2.57h0Zm49.34-95.07c-37.6,0-68.19,30.6-68.19,68.2,0,.16,0,.34.01.51,0,.09-.01.16-.01.25,0,.06,0,.13,0,.19s0,.12,0,.19c0,.39.05.76.06,1.14.03.82.07,1.62.12,2.43.09,1.33.22,2.64.39,3.95.15,1.15.32,2.27.52,3.4.03.13.04.25.06.38,5.87,31.68,33.69,55.75,67.04,55.75,37.61,0,68.2-30.59,68.2-68.19s-30.59-68.2-68.2-68.2Z"/>
    <rect class="cls-1" x="552.13" y="174.08" width="9.51" height="46.89"/>
    <path class="cls-2" d="m566.88,219.11l1.66-7.94c7.31,1.74,12.48,2.08,16.14,2.08,4.83,0,7.72-2.22,7.72-5.31,0-4.35-5.38-5.24-10.82-6.76-8.14-2.28-14-6.76-14-14.69,0-9.45,7.79-13.1,17.1-13.1,5.32,0,10.14.69,16.55,2.63l-2.13,7.92c-7.38-1.72-10.83-2.06-14.42-2.06-4.83,0-7.11,2.06-7.11,4.9,0,3.86,5.04,5.1,10.69,6.49,8.13,1.86,14.14,5.72,14.14,13.93,0,10-7.73,14.48-17.73,14.48-5.38,0-11.38-.69-17.8-2.55Z"/>
    <polygon class="cls-2" points="639.44 182.56 617.23 182.56 617.23 192.56 636.33 192.56 636.33 200.97 617.23 200.97 617.23 212.56 639.77 212.56 639.77 220.97 607.71 220.97 607.71 174.08 639.44 174.08 639.44 182.56"/>
  </g>
  <g>
    <rect class="cls-1" x="306.88" y="306.39" width="2.17" height="15.58"/>
    <polygon class="cls-2" points="312.03 321.97 312.03 306.39 314.21 306.39 321.77 317.96 321.82 317.96 321.82 306.39 323.95 306.39 323.95 321.97 321.77 321.97 314.18 310.65 314.14 310.65 314.14 321.97 312.03 321.97"/>
    <path class="cls-2" d="m326.16,321.4l.37-1.84c2.38.58,3.98.69,5.25.69,2.28,0,3.32-1.19,3.32-2.45,0-1.9-2.22-2.36-3.9-2.82-2.54-.67-4.81-2.06-4.81-4.7,0-2.95,2.41-4.12,5.39-4.12,1.72,0,3.32.22,5.27.8l-.5,1.83c-2.36-.57-3.51-.69-4.76-.69-2.29,0-3.1,1.04-3.1,2.25,0,1.76,2.27,2.38,4.01,2.8,2.52.57,4.69,1.79,4.69,4.47,0,3.09-2.4,4.59-5.61,4.59-1.72,0-3.67-.23-5.62-.8Z"/>
    <polygon class="cls-2" points="345.46 308.34 345.46 321.97 343.28 321.97 343.28 308.34 338.99 308.34 338.99 306.39 349.76 306.39 349.76 308.34 345.46 308.34"/>
    <rect class="cls-1" x="352.27" y="306.39" width="2.18" height="15.58"/>
    <polygon class="cls-2" points="363.43 308.34 363.43 321.97 361.25 321.97 361.25 308.34 356.97 308.34 356.97 306.39 367.73 306.39 367.73 308.34 363.43 308.34"/>
    <path class="cls-2" d="m379.75,316.47v-10.08h2.18v10.08c0,4.02-2.13,5.74-5.84,5.74s-5.84-1.72-5.84-5.74v-10.08h2.18v10.08c0,1.73.34,3.9,3.71,3.9s3.62-2.17,3.62-3.9Z"/>
    <polygon class="cls-2" points="390.9 308.34 390.9 321.97 388.72 321.97 388.72 308.34 384.44 308.34 384.44 306.39 395.21 306.39 395.21 308.34 390.9 308.34"/>
    <path class="cls-2" d="m396.66,314.07c0-4.35,1.31-7.9,6.64-7.9s6.65,3.55,6.65,7.9-1.33,8.14-6.65,8.14-6.64-3.71-6.64-8.14h0Zm2.29,0c0,3.32.62,6.3,4.35,6.3s4.35-2.98,4.35-6.3-.64-6.07-4.35-6.07-4.35,2.75-4.35,6.07Z"/>
    <path class="cls-2" d="m416.58,321.4l.37-1.84c2.38.58,3.98.69,5.24.69,2.29,0,3.32-1.19,3.32-2.45,0-1.9-2.22-2.36-3.89-2.82-2.54-.67-4.81-2.06-4.81-4.7,0-2.95,2.41-4.12,5.38-4.12,1.72,0,3.32.22,5.27.8l-.5,1.83c-2.36-.57-3.5-.69-4.77-.69-2.29,0-3.09,1.04-3.09,2.25,0,1.76,2.26,2.38,4.01,2.8,2.51.57,4.7,1.79,4.7,4.47,0,3.09-2.4,4.59-5.62,4.59-1.71,0-3.67-.23-5.61-.8Z"/>
    <path class="cls-2" d="m440.05,316.47v-10.08h2.18v10.08c0,4.02-2.13,5.74-5.84,5.74s-5.84-1.72-5.84-5.74v-10.08h2.18v10.08c0,1.73.34,3.9,3.71,3.9s3.62-2.17,3.62-3.9Z"/>
    <path class="cls-2" d="m447.37,315.79v6.19h-2.18v-15.58h6.41c3.1,0,4.82,1.95,4.82,4.7s-1.72,4.7-4.82,4.7h-4.24Zm0-1.94h4.01c1.72,0,2.79-.86,2.79-2.76,0-1.76-1.08-2.75-2.79-2.75h-4.01v5.5Z"/>
    <polygon class="cls-2" points="468.89 308.34 461.1 308.34 461.1 312.92 467.86 312.92 467.86 314.87 461.1 314.87 461.1 320.02 469.01 320.02 469.01 321.97 458.93 321.97 458.93 306.39 468.89 306.39 468.89 308.34"/>
    <path class="cls-2" d="m480.94,321.97l-3.69-6.07h-3.32v6.07h-2.18v-15.58h6.42c3.09,0,4.82,2.02,4.82,4.77,0,2.2-1.2,3.96-3.46,4.4l3.96,6.42h-2.54Zm-7.01-8.03h3.9c1.71,0,2.91-.92,2.91-2.79s-1.08-2.82-2.79-2.82h-4.01v5.61Z"/>
    <rect class="cls-1" x="485.83" y="306.39" width="2.18" height="15.58"/>
    <path class="cls-2" d="m490.49,314.07c0-4.35,1.31-7.9,6.65-7.9s6.65,3.55,6.65,7.9-1.33,8.14-6.65,8.14-6.65-3.71-6.65-8.14h0Zm2.29,0c0,3.32.62,6.3,4.35,6.3s4.35-2.98,4.35-6.3-.64-6.07-4.35-6.07-4.35,2.75-4.35,6.07Z"/>
    <path class="cls-2" d="m515.45,321.97l-3.69-6.07h-3.32v6.07h-2.17v-15.58h6.41c3.1,0,4.82,2.02,4.82,4.77,0,2.2-1.2,3.96-3.46,4.4l3.97,6.42h-2.55Zm-7.01-8.03h3.9c1.72,0,2.91-.92,2.91-2.79s-1.08-2.82-2.8-2.82h-4.01v5.61Z"/>
    <path class="cls-2" d="m524.47,321.97v-15.58h5.54c5.11,0,6.6,3.33,6.6,7.68s-1.49,7.9-6.6,7.9h-5.54Zm5.54-1.94c3.5,0,4.31-2.64,4.31-5.96s-.8-5.73-4.31-5.73h-3.37v11.69h3.37Z"/>
    <polygon class="cls-2" points="549.06 308.34 541.27 308.34 541.27 312.92 548.03 312.92 548.03 314.87 541.27 314.87 541.27 320.02 549.17 320.02 549.17 321.97 539.09 321.97 539.09 306.39 549.06 306.39 549.06 308.34"/>
    <polygon class="cls-2" points="566 308.34 558.2 308.34 558.2 312.92 564.97 312.92 564.97 314.87 558.2 314.87 558.2 320.02 566.11 320.02 566.11 321.97 556.03 321.97 556.03 306.39 566 306.39 566 308.34"/>
    <polygon class="cls-2" points="568.85 321.97 568.85 306.39 571.02 306.39 578.59 317.96 578.63 317.96 578.63 306.39 580.76 306.39 580.76 321.97 578.59 321.97 571 310.65 570.96 310.65 570.96 321.97 568.85 321.97"/>
    <path class="cls-2" d="m583.22,314.07c0-4.35,1.31-7.9,6.65-7.9,1.76,0,3.32.22,5.27.8l-.51,1.83c-2.36-.57-3.34-.69-4.6-.69-3.6,0-4.51,2.63-4.51,5.96,0,3.55.92,6.19,4.51,6.19,1.14,0,2.09-.29,2.93-.75v-3.6h-2.98v-1.94h5.16v7.01c-1.58.66-3.07,1.24-5.27,1.24-5.34,0-6.65-3.67-6.65-8.14Z"/>
    <polygon class="cls-2" points="608.07 308.34 600.28 308.34 600.28 312.92 607.04 312.92 607.04 314.87 600.28 314.87 600.28 320.02 608.18 320.02 608.18 321.97 598.1 321.97 598.1 306.39 608.07 306.39 608.07 308.34"/>
    <polygon class="cls-2" points="610.92 321.97 610.92 306.39 613.1 306.39 620.66 317.96 620.71 317.96 620.71 306.39 622.84 306.39 622.84 321.97 620.66 321.97 613.08 310.65 613.03 310.65 613.03 321.97 610.92 321.97"/>
    <polygon class="cls-2" points="625.8 321.97 625.8 306.39 627.98 306.39 627.98 312.92 635.31 312.92 635.31 306.39 637.49 306.39 637.49 321.97 635.31 321.97 635.31 314.87 627.98 314.87 627.98 321.97 625.8 321.97"/>
    <path class="cls-2" d="m649,318.03h-5.96l-1.33,3.94h-2.29l5.36-15.7h2.68l5.25,15.7h-2.43l-1.29-3.94h0Zm-2.95-9.03l-2.54,7.2h5.04l-2.45-7.2h-.05Z"/>
    <path class="cls-2" d="m663.83,321.97l-3.69-6.07h-3.33v6.07h-2.17v-15.58h6.41c3.09,0,4.82,2.02,4.82,4.77,0,2.2-1.2,3.96-3.46,4.4l3.97,6.42h-2.54Zm-7.01-8.03h3.9c1.72,0,2.91-.92,2.91-2.79s-1.08-2.82-2.79-2.82h-4.01v5.61Z"/>
    <rect class="cls-1" x="668.73" y="306.39" width="2.18" height="15.58"/>
    <path class="cls-2" d="m682.42,318.03h-5.96l-1.33,3.94h-2.29l5.36-15.7h2.68l5.25,15.7h-2.43l-1.29-3.94h0Zm-2.95-9.03l-2.54,7.2h5.04l-2.45-7.2h-.05Z"/>
  </g>
</svg>